<svg width="29" height="26" viewBox="0 0 29 26" fill="none" xmlns="http://www.w3.org/2000/svg">
<g clip-path="url(#clip0_2_27)">
<path d="M14.5 1.625C10.4319 1.625 7.17447 3.49375 4.80312 5.71797C2.44687 7.92188 0.870999 10.5625 0.125861 12.3754C-0.0402852 12.7766 -0.0402852 13.2234 0.125861 13.6246C0.870999 15.4375 2.44687 18.0781 4.80312 20.282C7.17447 22.5063 10.4319 24.375 14.5 24.375C18.568 24.375 21.8255 22.5063 24.1969 20.282C26.5531 18.073 28.129 15.4375 28.8792 13.6246C29.0453 13.2234 29.0453 12.7766 28.8792 12.3754C28.129 10.5625 26.5531 7.92188 24.1969 5.71797C21.8255 3.49375 18.568 1.625 14.5 1.625ZM7.24999 13C7.24999 11.0606 8.01383 9.20064 9.37347 7.82928C10.7331 6.45792 12.5772 5.6875 14.5 5.6875C16.4228 5.6875 18.2669 6.45792 19.6265 7.82928C20.9862 9.20064 21.75 11.0606 21.75 13C21.75 14.9394 20.9862 16.7994 19.6265 18.1707C18.2669 19.5421 16.4228 20.3125 14.5 20.3125C12.5772 20.3125 10.7331 19.5421 9.37347 18.1707C8.01383 16.7994 7.24999 14.9394 7.24999 13ZM14.5 9.75C14.5 11.5426 13.055 13 11.2778 13C10.9203 13 10.5779 12.9391 10.2557 12.8324C9.97881 12.741 9.65659 12.9137 9.66666 13.2082C9.68176 13.5586 9.73211 13.909 9.82777 14.2594C10.5175 16.8594 13.1708 18.4031 15.7486 17.7074C18.3264 17.0117 19.8569 14.3355 19.1672 11.7355C18.6083 9.62813 16.7606 8.21133 14.7064 8.125C14.4144 8.11484 14.2432 8.43477 14.3338 8.71914C14.4396 9.04414 14.5 9.38945 14.5 9.75Z" fill="white"/>
</g>
<defs>
<clipPath id="clip0_2_27">
<rect width="29" height="26" fill="white"/>
</clipPath>
</defs>
</svg>
