<svg width="19" height="19" viewBox="0 0 19 19" fill="none" xmlns="http://www.w3.org/2000/svg">
<path d="M1.53633 10.3387C1.07246 9.87481 1.07246 9.12149 1.53633 8.65762L7.47383 2.72012C7.93769 2.25626 8.69102 2.25626 9.15488 2.72012C9.61875 3.18399 9.61875 3.93731 9.15488 4.40118L4.05605 9.50001L9.15117 14.5988C9.61504 15.0627 9.61504 15.816 9.15117 16.2799C8.6873 16.7438 7.93398 16.7438 7.47012 16.2799L1.53262 10.3424L1.53633 10.3387ZM14.5988 16.2762L8.66133 10.3387C8.19746 9.87481 8.19746 9.12149 8.66133 8.65762L14.5988 2.72012C15.0627 2.25626 15.816 2.25626 16.2799 2.72012C16.7437 3.18399 16.7437 3.93731 16.2799 4.40118L11.1811 9.50001L16.2762 14.5988C16.74 15.0627 16.74 15.816 16.2762 16.2799C15.8123 16.7438 15.059 16.7438 14.5951 16.2799L14.5988 16.2762Z" fill="white"/>
</svg>
