<svg width="19" height="19" viewBox="0 0 19 19" fill="none" xmlns="http://www.w3.org/2000/svg">
<path d="M17.4637 10.3387C17.9275 9.87481 17.9275 9.12149 17.4637 8.65762L11.5262 2.72012C11.0623 2.25626 10.309 2.25626 9.84512 2.72012C9.38125 3.18399 9.38125 3.93731 9.84512 4.40118L14.9439 9.50001L9.84883 14.5988C9.38496 15.0627 9.38496 15.816 9.84883 16.2799C10.3127 16.7438 11.066 16.7438 11.5299 16.2799L17.4674 10.3424L17.4637 10.3387ZM4.40117 16.2762L10.3387 10.3387C10.8025 9.87481 10.8025 9.12149 10.3387 8.65762L4.40117 2.72012C3.9373 2.25626 3.18398 2.25626 2.72012 2.72012C2.25625 3.18399 2.25625 3.93731 2.72012 4.40118L7.81894 9.50001L2.72383 14.5988C2.25996 15.0627 2.25996 15.816 2.72383 16.2799C3.18769 16.7438 3.94101 16.7438 4.40488 16.2799L4.40117 16.2762Z" fill="white"/>
</svg>
