<svg width="21" height="21" viewBox="0 0 21 21" fill="none" xmlns="http://www.w3.org/2000/svg">
<g clip-path="url(#clip0_18_2)">
<path d="M17.0625 8.53125C17.0625 10.4139 16.4514 12.1529 15.4219 13.5639L20.6145 18.7605C21.1271 19.2732 21.1271 20.1059 20.6145 20.6186C20.1018 21.1313 19.2691 21.1313 18.7564 20.6186L13.5639 15.4219C12.1529 16.4555 10.4139 17.0625 8.53125 17.0625C3.81855 17.0625 0 13.2439 0 8.53125C0 3.81855 3.81855 0 8.53125 0C13.2439 0 17.0625 3.81855 17.0625 8.53125ZM8.53125 14.4375C9.30687 14.4375 10.0749 14.2847 10.7915 13.9879C11.5081 13.6911 12.1592 13.256 12.7076 12.7076C13.256 12.1592 13.6911 11.5081 13.9879 10.7915C14.2847 10.0749 14.4375 9.30687 14.4375 8.53125C14.4375 7.75563 14.2847 6.98761 13.9879 6.27103C13.6911 5.55445 13.256 4.90335 12.7076 4.3549C12.1592 3.80645 11.5081 3.3714 10.7915 3.07459C10.0749 2.77777 9.30687 2.625 8.53125 2.625C7.75563 2.625 6.98761 2.77777 6.27103 3.07459C5.55445 3.3714 4.90335 3.80645 4.3549 4.3549C3.80645 4.90335 3.3714 5.55445 3.07459 6.27103C2.77777 6.98761 2.625 7.75563 2.625 8.53125C2.625 9.30687 2.77777 10.0749 3.07459 10.7915C3.3714 11.5081 3.80645 12.1592 4.3549 12.7076C4.90335 13.256 5.55445 13.6911 6.27103 13.9879C6.98761 14.2847 7.75563 14.4375 8.53125 14.4375Z" fill="white"/>
</g>
<defs>
<clipPath id="clip0_18_2">
<rect width="21" height="21" fill="white"/>
</clipPath>
</defs>
</svg>
